<?xml version="1.0" standalone="no"?>
<!DOCTYPE svg PUBLIC "-//W3C//DTD SVG 20010904//EN"
 "http://www.w3.org/TR/2001/REC-SVG-20010904/DTD/svg10.dtd">
<svg version="1.0" xmlns="http://www.w3.org/2000/svg"
 width="512.000000pt" height="512.000000pt" viewBox="0 0 512.000000 512.000000"
 preserveAspectRatio="xMidYMid meet">
<metadata>
Created by potrace 1.11, written by Peter Selinger 2001-2013
</metadata>
<g transform="translate(0.000000,512.000000) scale(0.100000,-0.100000)"
fill="#000000" stroke="none">
<path d="M134 4318 c-46 -10 -93 -51 -118 -102 -14 -31 -16 -163 -13 -1403 l2
-1368 25 -37 c14 -20 43 -47 65 -59 36 -21 54 -23 187 -24 81 0 150 -3 153 -7
3 -3 9 -28 11 -54 12 -111 64 -220 142 -301 155 -160 343 -205 569 -135 57 18
127 66 192 132 79 80 129 179 145 290 l11 75 1056 0 1057 0 6 -60 c23 -221
199 -413 419 -458 224 -46 453 59 568 259 32 57 68 181 65 229 l-1 30 155 1
c122 0 161 4 185 16 46 25 84 67 95 107 13 48 14 1843 0 1891 -10 35 -48 82
-220 270 -99 108 -390 427 -465 510 -126 139 -180 187 -220 195 -51 11 -4017
13 -4071 3z"/>
</g>
</svg>
